<mxfile host="app.diagrams.net" modified="2024-04-27T13:53:56.389Z" agent="Mozilla/5.0 (Macintosh; Intel Mac OS X 10_15_7) AppleWebKit/605.1.15 (KHTML, like Gecko) Version/16.1 Safari/605.1.15" etag="nHewReXLJOZnnPAwf8gg" version="24.3.0" type="github">
  <diagram name="Page-1" id="ZSiE6AxcmBYcnqlNDIm1">
    <mxGraphModel dx="838" dy="622" grid="1" gridSize="10" guides="1" tooltips="1" connect="1" arrows="1" fold="1" page="1" pageScale="1" pageWidth="827" pageHeight="1169" math="0" shadow="0">
      <root>
        <mxCell id="0" />
        <mxCell id="1" parent="0" />
        <mxCell id="SoimrYdb_fdH0d7RYcIz-1" value="" style="whiteSpace=wrap;html=1;aspect=fixed;fillColor=#f8cecc;strokeColor=#b85450;" vertex="1" parent="1">
          <mxGeometry x="150" y="40" width="30" height="30" as="geometry" />
        </mxCell>
        <mxCell id="SoimrYdb_fdH0d7RYcIz-2" value="" style="whiteSpace=wrap;html=1;aspect=fixed;fillColor=#663300;strokeColor=#d79b00;fillStyle=solid;" vertex="1" parent="1">
          <mxGeometry x="150" y="70" width="30" height="30" as="geometry" />
        </mxCell>
        <mxCell id="SoimrYdb_fdH0d7RYcIz-3" value="" style="whiteSpace=wrap;html=1;aspect=fixed;fillColor=#d5e8d4;strokeColor=#82b366;" vertex="1" parent="1">
          <mxGeometry x="150" y="100" width="30" height="30" as="geometry" />
        </mxCell>
        <mxCell id="SoimrYdb_fdH0d7RYcIz-22" style="edgeStyle=orthogonalEdgeStyle;rounded=0;orthogonalLoop=1;jettySize=auto;html=1;entryX=0.25;entryY=1;entryDx=0;entryDy=0;strokeWidth=3;fillColor=#f8cecc;strokeColor=#b85450;" edge="1" parent="1" source="SoimrYdb_fdH0d7RYcIz-4" target="SoimrYdb_fdH0d7RYcIz-3">
          <mxGeometry relative="1" as="geometry" />
        </mxCell>
        <mxCell id="SoimrYdb_fdH0d7RYcIz-4" value="6DI/8DO" style="rounded=0;whiteSpace=wrap;html=1;" vertex="1" parent="1">
          <mxGeometry x="240" y="120" width="70" height="160" as="geometry" />
        </mxCell>
        <mxCell id="SoimrYdb_fdH0d7RYcIz-7" value="" style="rounded=0;whiteSpace=wrap;html=1;" vertex="1" parent="1">
          <mxGeometry x="200" y="335" width="120" height="160" as="geometry" />
        </mxCell>
        <mxCell id="SoimrYdb_fdH0d7RYcIz-8" value="" style="ellipse;whiteSpace=wrap;html=1;aspect=fixed;" vertex="1" parent="1">
          <mxGeometry x="210" y="370" width="30" height="30" as="geometry" />
        </mxCell>
        <mxCell id="SoimrYdb_fdH0d7RYcIz-9" value="" style="ellipse;whiteSpace=wrap;html=1;aspect=fixed;" vertex="1" parent="1">
          <mxGeometry x="210" y="400" width="30" height="30" as="geometry" />
        </mxCell>
        <mxCell id="SoimrYdb_fdH0d7RYcIz-10" value="" style="ellipse;whiteSpace=wrap;html=1;aspect=fixed;" vertex="1" parent="1">
          <mxGeometry x="210" y="430" width="30" height="30" as="geometry" />
        </mxCell>
        <mxCell id="SoimrYdb_fdH0d7RYcIz-11" value="" style="ellipse;whiteSpace=wrap;html=1;aspect=fixed;" vertex="1" parent="1">
          <mxGeometry x="210" y="460" width="30" height="30" as="geometry" />
        </mxCell>
        <mxCell id="SoimrYdb_fdH0d7RYcIz-12" value="1 пц" style="text;html=1;align=center;verticalAlign=middle;whiteSpace=wrap;rounded=0;" vertex="1" parent="1">
          <mxGeometry x="230" y="370" width="60" height="30" as="geometry" />
        </mxCell>
        <mxCell id="SoimrYdb_fdH0d7RYcIz-15" value="3 пц" style="text;html=1;align=center;verticalAlign=middle;whiteSpace=wrap;rounded=0;" vertex="1" parent="1">
          <mxGeometry x="230" y="430" width="60" height="30" as="geometry" />
        </mxCell>
        <mxCell id="SoimrYdb_fdH0d7RYcIz-16" value="Сброс" style="text;html=1;align=center;verticalAlign=middle;whiteSpace=wrap;rounded=0;" vertex="1" parent="1">
          <mxGeometry x="230" y="460" width="60" height="30" as="geometry" />
        </mxCell>
        <mxCell id="SoimrYdb_fdH0d7RYcIz-17" value="Ручное управление" style="text;html=1;align=center;verticalAlign=middle;whiteSpace=wrap;rounded=0;" vertex="1" parent="1">
          <mxGeometry x="230" y="335" width="60" height="30" as="geometry" />
        </mxCell>
        <mxCell id="SoimrYdb_fdH0d7RYcIz-20" value="2 пц" style="text;html=1;align=center;verticalAlign=middle;whiteSpace=wrap;rounded=0;" vertex="1" parent="1">
          <mxGeometry x="230" y="400" width="60" height="30" as="geometry" />
        </mxCell>
        <mxCell id="SoimrYdb_fdH0d7RYcIz-21" style="edgeStyle=orthogonalEdgeStyle;rounded=0;orthogonalLoop=1;jettySize=auto;html=1;entryX=0.014;entryY=0.631;entryDx=0;entryDy=0;entryPerimeter=0;exitX=0;exitY=0.75;exitDx=0;exitDy=0;strokeWidth=3;fillColor=#f8cecc;strokeColor=#b85450;" edge="1" parent="1" source="SoimrYdb_fdH0d7RYcIz-7" target="SoimrYdb_fdH0d7RYcIz-4">
          <mxGeometry relative="1" as="geometry">
            <mxPoint x="130" y="450" as="sourcePoint" />
            <Array as="points">
              <mxPoint x="160" y="455" />
              <mxPoint x="160" y="221" />
            </Array>
          </mxGeometry>
        </mxCell>
        <mxCell id="SoimrYdb_fdH0d7RYcIz-23" value="MK210-301&lt;div&gt;ОВЕН&lt;/div&gt;" style="text;html=1;align=center;verticalAlign=middle;whiteSpace=wrap;rounded=0;" vertex="1" parent="1">
          <mxGeometry x="220" y="120" width="120" height="30" as="geometry" />
        </mxCell>
        <mxCell id="SoimrYdb_fdH0d7RYcIz-24" value="3DO" style="text;html=1;align=center;verticalAlign=middle;resizable=0;points=[];autosize=1;strokeColor=none;fillColor=none;" vertex="1" parent="1">
          <mxGeometry x="165" y="178" width="50" height="30" as="geometry" />
        </mxCell>
        <mxCell id="SoimrYdb_fdH0d7RYcIz-25" value="4DI" style="text;html=1;align=center;verticalAlign=middle;resizable=0;points=[];autosize=1;strokeColor=none;fillColor=none;" vertex="1" parent="1">
          <mxGeometry x="170" y="218" width="40" height="30" as="geometry" />
        </mxCell>
        <mxCell id="SoimrYdb_fdH0d7RYcIz-26" value="EQ-501" style="rounded=0;whiteSpace=wrap;html=1;" vertex="1" parent="1">
          <mxGeometry x="350" y="290" width="90" height="30" as="geometry" />
        </mxCell>
        <mxCell id="SoimrYdb_fdH0d7RYcIz-27" style="edgeStyle=orthogonalEdgeStyle;rounded=0;orthogonalLoop=1;jettySize=auto;html=1;entryX=0.014;entryY=0.831;entryDx=0;entryDy=0;entryPerimeter=0;strokeWidth=3;fillColor=#f8cecc;strokeColor=#b85450;" edge="1" parent="1" source="SoimrYdb_fdH0d7RYcIz-26" target="SoimrYdb_fdH0d7RYcIz-4">
          <mxGeometry relative="1" as="geometry" />
        </mxCell>
        <mxCell id="SoimrYdb_fdH0d7RYcIz-28" value="1DI" style="text;html=1;align=center;verticalAlign=middle;resizable=0;points=[];autosize=1;strokeColor=none;fillColor=none;" vertex="1" parent="1">
          <mxGeometry x="240" y="278" width="40" height="30" as="geometry" />
        </mxCell>
        <mxCell id="SoimrYdb_fdH0d7RYcIz-29" value="" style="rounded=0;whiteSpace=wrap;html=1;" vertex="1" parent="1">
          <mxGeometry x="354" y="20" width="306" height="170" as="geometry" />
        </mxCell>
        <mxCell id="SoimrYdb_fdH0d7RYcIz-30" value="KAI MOD1" style="text;html=1;align=center;verticalAlign=middle;whiteSpace=wrap;rounded=0;" vertex="1" parent="1">
          <mxGeometry x="360" y="20" width="60" height="30" as="geometry" />
        </mxCell>
        <mxCell id="SoimrYdb_fdH0d7RYcIz-31" value="MODBUS Client" style="rounded=0;whiteSpace=wrap;html=1;" vertex="1" parent="1">
          <mxGeometry x="360" y="50" width="120" height="20" as="geometry" />
        </mxCell>
        <mxCell id="SoimrYdb_fdH0d7RYcIz-32" value="MODBUS server" style="rounded=0;whiteSpace=wrap;html=1;" vertex="1" parent="1">
          <mxGeometry x="240" y="218" width="70" height="40" as="geometry" />
        </mxCell>
      </root>
    </mxGraphModel>
  </diagram>
</mxfile>
